<?xml version="1.0" encoding="UTF-8"?>
<svg width="256" height="256" version="1.1"
     xmlns="http://www.w3.org/2000/svg"
     xmlns:xlink="http://www.w3.org/1999/xlink">
  <defs>
    <linearGradient id="Gradient" x1="0" x2="0" y1="0" y2="1">
      <stop offset="0%" style="stop-color:#E5A50A;stop-opacity:1" />
      <stop offset="100%" style="stop-color:#E5A50A;stop-opacity:1" />
    </linearGradient>
    <filter id="alpha-to-white">
      <feColorMatrix in="SourceGraphic" type="matrix"
                     values="0 0 0 0 1 0 0 0 0 1 0 0 0 0 1 0 0 0 1 0"/>
    </filter>
    <g id="child-svg"><svg xmlns="http://www.w3.org/2000/svg" height="16px" viewBox="0 0 16 16" width="16px"><path d="m 12.824219 2.78125 l -1.5 1.488281 c -1.074219 -0.785156 -2.394531 -1.257812 -3.824219 -1.257812 c -3.578125 0 -6.5 2.921875 -6.5 6.5 s 2.921875 6.5 6.5 6.5 s 6.5 -2.921875 6.5 -6.5 c 0 -1.429688 -0.472656 -2.75 -1.261719 -3.824219 l 1.496094 -1.488281 z m -5.324219 2.230469 c 2.496094 0 4.5 2.003906 4.5 4.5 c 0 2.496093 -2.003906 4.5 -4.5 4.5 s -4.5 -2.003907 -4.5 -4.5 c 0 -2.496094 2.003906 -4.5 4.5 -4.5 z m 0 0" /><path d="m 4.878906 0.00390625 c -0.359375 -0.00390625 -0.695312 0.18359375 -0.875 0.49609375 c -0.183594 0.3125 -0.183594 0.699219 0 1.007812 c 0.179688 0.3125 0.515625 0.503907 0.875 0.496094 h 5.242188 c 0.359375 0.007813 0.695312 -0.183594 0.875 -0.496094 c 0.183594 -0.308593 0.183594 -0.695312 0 -1.007812 c -0.179688 -0.3125 -0.515625 -0.5 -0.875 -0.49609375 z m 0 0" /><path d="m 7 10 h 1 v -4 h -1 z m 0 0" /></svg></g>
  </defs>
  <rect
      width="256"
      height="256"
      fill="url(#Gradient)"
      ry="128"
      x="0"
      y="0" />
  <use xlink:href="#child-svg" filter="url(#alpha-to-white)"
       transform="matrix(8,0,0,8,64,64)" />
</svg>
